<svg width="16" height="17" viewBox="0 0 16 17" fill="none" xmlns="http://www.w3.org/2000/svg">
<path d="M13.5 7.375V4.375" stroke="black" stroke-linecap="round" stroke-linejoin="round"/>
<path d="M15 5.875H12" stroke="black" stroke-linecap="round" stroke-linejoin="round"/>
<path d="M10.5 1.875V3.875" stroke="black" stroke-linecap="round" stroke-linejoin="round"/>
<path d="M11.5 2.875H9.5" stroke="black" stroke-linecap="round" stroke-linejoin="round"/>
<path d="M13.5436 9.91252C12.5619 10.1878 11.5247 10.1968 10.5384 9.93866C9.55205 9.6805 8.65223 9.16446 7.93131 8.44354C7.21039 7.72262 6.69436 6.8228 6.43619 5.83649C6.17803 4.85019 6.18706 3.81294 6.46233 2.83127C5.4945 3.10065 4.61413 3.61891 3.90892 4.33441C3.20371 5.04992 2.69827 5.93771 2.44295 6.90935C2.18763 7.88099 2.19133 8.90256 2.45369 9.87232C2.71605 10.8421 3.22791 11.7262 3.93829 12.4366C4.64866 13.1469 5.53276 13.6588 6.50253 13.9212C7.47229 14.1835 8.49387 14.1872 9.4655 13.9319C10.4371 13.6766 11.3249 13.1711 12.0404 12.4659C12.7559 11.7607 13.2742 10.8804 13.5436 9.91252Z" stroke="black" stroke-linecap="round" stroke-linejoin="round"/>
</svg>
